<?xml version="1.0"?>
<svg xmlns="http://www.w3.org/2000/svg" xmlns:xlink="http://www.w3.org/1999/xlink" xmlns:svgjs="http://svgjs.com/svgjs" version="1.1" width="512" height="512" x="0" y="0" viewBox="0 0 512 512" style="enable-background:new 0 0 512 512" xml:space="preserve" class=""><g><g xmlns="http://www.w3.org/2000/svg"><g><path d="m315.577 320.977c-.036 4.142 3.293 7.528 7.435 7.564h.066c4.111 0 7.463-3.315 7.498-7.436.031-3.568.133-15.667.241-30.957h9.183c4.142 0 7.5-3.357 7.5-7.5s-3.358-7.5-7.5-7.5h-9.082c.205-32.629.353-71.059-.042-75.796-1.279-15.348-16.948-22.143-27.99-8.594-7.352 9.021-46.68 80.183-51.14 88.267-2.753 4.99.863 11.123 6.567 11.123h57.504c-.075 10.794-.158 21.337-.24 30.829zm-44.536-45.829c14.125-25.41 36.693-63.498 43.169-74.391.503-.846 1.798-.491 1.8.493.028 10.594.091 43.398-.087 72.937-.003.534-.437.961-.97.961z" fill="#ee3338" data-original="#000000" style="" class=""/><path d="m217.329 251.943c-20.689 29.561-33.044 45.738-39.682 54.429-7.762 10.165-9.607 12.58-8.188 17.19.781 2.536 2.728 4.491 5.342 5.362 4.729 1.575 63.617.652 68.753.588 4.142-.052 7.457-3.451 7.405-7.593-.052-4.11-3.399-7.406-7.498-7.406-.032 0-.064 0-.096.001-19.348.243-40.478.37-53.265.265 6.823-8.937 19.19-25.192 39.517-54.234 6.909-9.872 15.828-25.513 15.828-37.573 0-22.489-18.296-40.785-40.786-40.785-19.446 0-36.277 13.832-40.02 32.889-.798 4.064 1.85 8.007 5.914 8.805 4.059.796 8.006-1.849 8.805-5.914 2.365-12.04 13.006-20.779 25.301-20.779 14.069 0 25.542 11.325 25.782 25.338-.302.928.575 9.862-13.112 29.417z" fill="#ee3338" data-original="#000000" style="" class=""/><path d="m430.376 363.387h-43.248c-4.142 0-7.5 3.357-7.5 7.5s3.358 7.5 7.5 7.5h40.308l-36.766 83.637c-1.667 3.792.056 8.218 3.848 9.885 3.775 1.659 8.21-.039 9.884-3.848l37.95-86.329c3.8-8.648-2.543-18.345-11.976-18.345z" fill="#ee3338" data-original="#000000" style="" class=""/><path d="m471.982 333.579c2.006-5.592 3.8-11.275 5.353-16.964.353-1.293 1.489-2.217 2.783-2.246l.306-.004c17.347-.06 31.638-13.954 31.574-32.401l-.19-54.398c-.06-17.43-14.184-31.502-31.614-31.502-.071 0-.143.001-.214.001l-.295-.001c-1.274-.021-2.417-.936-2.778-2.226-5.013-17.872-12.186-35.055-21.353-51.175-.772-1.358-.601-3.086.509-4.185.006-.006.013-.013.019-.019 12.434-12.27 11.937-32.563-.276-44.693l-38.974-38.702c-12.287-12.203-32.451-12.554-44.696.038-1.056 1.092-2.259 1.642-3.846.754-16.271-9.143-33.654-16.271-51.666-21.19-1.298-.354-2.225-1.493-2.254-2.77l-.004-.344c-.115-17.421-14.351-31.552-31.759-31.552-.037 0-.076 0-.113 0l-55.088.193c-17.797.064-31.575 14.704-31.34 31.803l-.001.316c-.02 1.275-.938 2.42-2.231 2.783-17.98 5.044-35.314 12.296-51.521 21.553-1.124.641-2.485.557-3.313-.209-.182-.168-.362-.341-.541-.522-12.486-12.661-32.658-11.839-44.691.277l-38.703 38.975c-12.011 12.095-12.588 32.413.025 44.682l.225.224c.97.979 1.162 2.531.465 3.773-9.106 16.232-16.209 33.569-21.113 51.528-.361 1.322-1.596 2.25-3.003 2.258-.013 0-.098.001-.111.001-17.458.116-31.613 14.414-31.552 31.873l.192 54.851c.061 17.435 14.264 31.576 31.716 31.575h.113l.29.002c1.276.02 2.422.938 2.785 2.233 5.038 17.957 12.278 35.272 21.521 51.467.685 1.2.509 2.663-.434 3.636l-.269.271c-12.584 12.408-11.775 32.722.279 44.691l38.974 38.702c12.271 12.184 32.435 12.565 44.698-.041.178-.184.359-.361.532-.523.82-.769 2.181-.862 3.308-.23 16.273 9.145 33.659 16.275 51.675 21.193 1.295.354 2.22 1.491 2.249 2.764l.004.3c0 17.031 13.627 31.603 31.599 31.603h.114l54.768-.192c17.406-.061 31.663-14.249 31.816-31.646.001-.062.001-.124.001-.187l.001-.28c.02-1.28.942-2.43 2.244-2.795 5.11-1.435 10.266-3.089 15.391-4.93 18.839 25.33 49.483 41.384 83.719 39.94 51.074-2.155 92.461-43.538 94.62-94.612 1.45-34.235-14.6-64.879-39.925-83.721zm-157.854 128.879c-7.647 2.146-13.072 9.142-13.19 17-.003.173-.004.348-.004.521v.009c-.06 9.242-7.627 16.788-16.87 16.82l-54.768.192c-.02 0-.04 0-.06 0-9.135 0-16.601-7.374-16.601-16.636 0-.202-.003-.402-.008-.605-.179-7.86-5.646-14.808-13.295-16.896-16.831-4.595-33.073-11.256-48.277-19.8-6.729-3.782-15.472-3.288-21.946 3.378-6.263 6.44-16.822 6.353-23.37-.15l-38.974-38.702c-6.333-6.288-6.756-17.017-.33-23.353 6.323-6.2 7.082-15.255 3.211-22.036-8.635-15.129-15.4-31.307-20.106-48.082-2.143-7.64-9.132-13.06-16.967-13.181-.163-.003-.326-.004-.484-.004-.072 0-.137.001-.21 0-9.173 0-16.653-7.447-16.686-16.628l-.192-54.851c-.032-9.214 7.438-16.759 16.612-16.82.013 0 .118-.001.131-.001 8.114-.043 15.267-5.516 17.394-13.307 4.581-16.778 11.217-32.976 19.725-48.142 3.954-7.051 2.764-15.962-2.892-21.669l-.411-.408c-6.509-6.33-6.123-17.055.148-23.37l38.703-38.974c6.37-6.416 16.959-6.813 23.365-.317.342.347.691.684 1.043 1.009 5.667 5.24 14.078 6.13 20.932 2.218 15.142-8.648 31.337-15.423 48.134-20.136 7.635-2.142 13.055-9.127 13.179-16.987.003-.2.004-.4.003-.681-.125-9.159 7.234-16.644 16.393-16.677l55.086-.192h.06c9.186 0 16.699 7.457 16.759 16.637 0 .199.003.398.008.598.177 7.862 5.646 14.812 13.299 16.902 16.829 4.595 33.069 11.255 48.27 19.797 6.733 3.782 15.477 3.295 21.953-3.379 6.382-6.562 16.977-6.191 23.367.152l38.974 38.703c6.317 6.274 6.646 16.866.312 23.371-6.421 6.594-8.763 12.722-5.449 18.16 10.139 16.64 17.103 33.187 22.366 51.948 2.14 7.63 9.123 13.047 17.005 13.173.144.002.289.003.437.003.097 0 .194 0 .292-.001 9.134 0 16.578 7.376 16.609 16.555l.192 55.001c.029 8.384-6.158 16.478-17.243 16.753-7.857.179-14.804 5.645-16.892 13.292-1.161 4.254-2.483 8.501-3.92 12.708-13.732-7.223-29.354-11.319-45.917-11.319-54.574 0-98.973 44.399-98.973 98.973 0 16.562 4.095 32.183 11.317 45.914-3.754 1.285-7.513 2.47-11.244 3.517zm98.899 34.542c-46.303 0-83.973-37.67-83.973-83.973s37.67-83.973 83.973-83.973c46.302 0 83.972 37.67 83.972 83.973s-37.669 83.973-83.972 83.973z" fill="#ee3338" data-original="#000000" style="" class=""/><path d="m287.687 425.087c-10.379 1.933-21.04 2.912-31.687 2.912-94.841 0-172-77.158-172-171.999s77.159-172 172-172 172 77.159 172 172c0 10.647-.98 21.308-2.913 31.686-.759 4.072 1.928 7.988 6 8.746 4.071.762 7.988-1.928 8.746-6 2.101-11.281 3.167-22.866 3.167-34.432 0-103.112-83.888-187-187-187s-187 83.888-187 187c0 103.111 83.888 186.999 187 186.999 11.565 0 23.15-1.065 34.433-3.166 4.072-.758 6.758-4.674 6-8.746-.759-4.071-4.669-6.76-8.746-6z" fill="#ee3338" data-original="#000000" style="" class=""/><path d="m256 101.575c-85.15 0-154.425 69.274-154.425 154.425s69.275 154.425 154.425 154.425c11.445 0 22.863-1.26 33.937-3.743 4.042-.907 6.583-4.918 5.677-8.96-.907-4.042-4.917-6.584-8.96-5.677-9.998 2.243-20.311 3.38-30.654 3.38-76.879 0-139.425-62.546-139.425-139.425s62.546-139.425 139.425-139.425 139.425 62.546 139.425 139.425c0 10.395-1.148 20.757-3.413 30.801-.911 4.04 1.626 8.055 5.667 8.966 4.042.911 8.055-1.626 8.966-5.667 2.508-11.124 3.78-22.597 3.78-34.1 0-85.15-69.275-154.425-154.425-154.425z" fill="#ee3338" data-original="#000000" style="" class=""/></g></g></g></svg>
