<svg width="32" height="32" viewBox="0 0 32 32" fill="none" xmlns="http://www.w3.org/2000/svg">
<g clip-path="url(#clip0_1449_1007)">
<path d="M24 18C24 18.5304 23.7893 19.0391 23.4142 19.4142C23.0391 19.7893 22.5304 20 22 20C21.4696 20 20.9609 19.7893 20.5858 19.4142C20.2107 19.0391 20 18.5304 20 18C20 17.4696 20.2107 16.9609 20.5858 16.5858C20.9609 16.2107 21.4696 16 22 16C22.5304 16 23.0391 16.2107 23.4142 16.5858C23.7893 16.9609 24 17.4696 24 18Z" fill="#F8F8F8"/>
<path d="M4 9V26C4 26.5523 4.44772 27 5 27H27C27.5523 27 28 26.5523 28 26V10C28 9.44772 27.5523 9 27 9H25M4 9H25M4 9L23.7253 3.36421C24.3641 3.18169 25 3.66135 25 4.32573V9" stroke="white" stroke-width="2" stroke-linecap="round"/>
</g>
<defs>
<clipPath id="clip0_1449_1007">
<rect width="32" height="32" fill="white"/>
</clipPath>
</defs>
</svg>
