<svg width="34" height="34" viewBox="0 0 34 34" fill="none" xmlns="http://www.w3.org/2000/svg">
<rect x="0.5" y="-0.5" width="33" height="33" rx="3.5" transform="matrix(-1 0 0 1 34 1)" fill="#626262" fill-opacity="0.5"/>
<rect x="0.5" y="-0.5" width="33" height="33" rx="3.5" transform="matrix(-1 0 0 1 34 1)" stroke="#808080"/>
<path d="M22.4941 14.2429C22.4941 13.5133 22.2045 12.8137 21.689 12.2978C21.1734 11.782 20.4742 11.4922 19.7451 11.4922H8.74917C8.02009 11.4922 7.32087 11.782 6.80534 12.2978C6.2898 12.8137 6.00017 13.5133 6.00017 14.2429V25.2455C6.00017 25.9751 6.2898 26.6747 6.80534 27.1906C7.32087 27.7064 8.02009 27.9962 8.74917 27.9962H19.7451C20.4742 27.9962 21.1734 27.7064 21.689 27.1906C22.2045 26.6747 22.4941 25.9751 22.4941 25.2455V14.2429Z" stroke="white" stroke-width="2" stroke-linecap="round" stroke-linejoin="round"/>
<path d="M11.4963 11.5013V8.75067C11.4963 8.02115 11.7859 7.3215 12.3014 6.80565C12.817 6.2898 13.5162 6 14.2453 6H25.2412C25.9703 6 26.6695 6.2898 27.1851 6.80565C27.7006 7.3215 27.9902 8.02115 27.9902 8.75067V19.7534C27.9902 20.4829 27.7006 21.1825 27.1851 21.6984C26.6695 22.2142 25.9703 22.504 25.2412 22.504H22.4922" stroke="white" stroke-width="2" stroke-linecap="round" stroke-linejoin="round"/>
</svg>
