<svg width="26" height="26" viewBox="0 0 26 26" fill="none" xmlns="http://www.w3.org/2000/svg">
<path d="M25.0003 25.0003L19.2096 19.2096M19.2096 19.2096C20.2001 18.2191 20.9858 17.0432 21.5219 15.749C22.058 14.4548 22.3339 13.0677 22.3339 11.6669C22.3339 10.2661 22.058 8.87905 21.5219 7.58488C20.9858 6.29071 20.2001 5.11479 19.2096 4.12427C18.2191 3.13376 17.0432 2.34804 15.749 1.81197C14.4548 1.27591 13.0677 1 11.6669 1C10.2661 1 8.87905 1.27591 7.58488 1.81197C6.29071 2.34804 5.11479 3.13376 4.12427 4.12427C2.12384 6.12471 1 8.83789 1 11.6669C1 14.496 2.12384 17.2092 4.12427 19.2096C6.12471 21.21 8.83789 22.3339 11.6669 22.3339C14.496 22.3339 17.2092 21.21 19.2096 19.2096Z" stroke="white" stroke-width="2" stroke-linecap="round" stroke-linejoin="round"/>
</svg>
