<svg width="32" height="32" viewBox="0 0 32 32" fill="none" xmlns="http://www.w3.org/2000/svg">
<path d="M29.3307 8.66667H21.3307M7.9974 8.66667H2.66406M29.3307 23.3333H23.9974M10.6641 23.3333H2.66406M13.3307 13.3333C13.9436 13.3333 14.5504 13.2126 15.1166 12.9781C15.6828 12.7436 16.1972 12.3998 16.6306 11.9665C17.0639 11.5332 17.4076 11.0187 17.6422 10.4525C17.8767 9.88634 17.9974 9.2795 17.9974 8.66667C17.9974 8.05383 17.8767 7.447 17.6422 6.88081C17.4076 6.31462 17.0639 5.80018 16.6306 5.36684C16.1972 4.9335 15.6828 4.58975 15.1166 4.35523C14.5504 4.12071 13.9436 4 13.3307 4C12.0931 4 10.9061 4.49167 10.0309 5.36684C9.15573 6.24201 8.66406 7.42899 8.66406 8.66667C8.66406 9.90434 9.15573 11.0913 10.0309 11.9665C10.9061 12.8417 12.0931 13.3333 13.3307 13.3333ZM18.6641 28C19.9017 28 21.0887 27.5083 21.9639 26.6332C22.8391 25.758 23.3307 24.571 23.3307 23.3333C23.3307 22.0957 22.8391 20.9087 21.9639 20.0335C21.0887 19.1583 19.9017 18.6667 18.6641 18.6667C17.4264 18.6667 16.2394 19.1583 15.3642 20.0335C14.4891 20.9087 13.9974 22.0957 13.9974 23.3333C13.9974 24.571 14.4891 25.758 15.3642 26.6332C16.2394 27.5083 17.4264 28 18.6641 28Z" stroke="white" stroke-width="2" stroke-miterlimit="10" stroke-linecap="round" stroke-linejoin="round"/>
</svg>
