<svg width="32" height="32" viewBox="0 0 32 32" fill="none" xmlns="http://www.w3.org/2000/svg">
<path d="M26.2129 22.1583V19.1915C26.2129 18.0065 25.7422 16.87 24.9044 16.0321C24.0665 15.1941 22.9302 14.7234 21.7453 14.7234H19.1923C18.6845 14.7234 18.1975 14.5217 17.8384 14.1625C17.4794 13.8034 17.2776 13.3164 17.2776 12.8085V9.8417C17.8102 9.59843 18.2617 9.20733 18.5785 8.71489C18.8953 8.22245 19.0641 7.64939 19.0647 7.06383C19.0647 6.25125 18.7419 5.47195 18.1674 4.89737C17.5929 4.3228 16.8137 4 16.0012 4C15.1887 4 14.4094 4.3228 13.8349 4.89737C13.2604 5.47195 12.9376 6.25125 12.9376 7.06383C12.9376 8.2983 13.6729 9.35659 14.7247 9.8417V12.8085C14.7247 13.3164 14.523 13.8034 14.1639 14.1625C13.8048 14.5217 13.3178 14.7234 12.81 14.7234H10.257C9.07215 14.7234 7.93578 15.1941 7.09794 16.0321C6.26009 16.87 5.78939 18.0065 5.78939 19.1915V22.1583C5.15341 22.4484 4.63597 22.9475 4.32322 23.5727C4.01047 24.1979 3.92129 24.9114 4.07052 25.5943C4.21975 26.2772 4.59839 26.8885 5.14339 27.3262C5.68839 27.7639 6.36688 28.0017 7.06586 28C7.76414 28.0003 8.44153 27.7618 8.98555 27.324C9.52957 26.8862 9.9075 26.2755 10.0566 25.5933C10.2057 24.911 10.1169 24.1983 9.80508 23.5735C9.49326 22.9486 8.9771 22.4493 8.34234 22.1583V19.1915C8.34234 18.6836 8.54406 18.1966 8.90314 17.8375C9.26222 17.4783 9.74923 17.2766 10.257 17.2766H12.81C13.498 17.2766 14.1426 17.1081 14.7247 16.8298V22.1583C14.0887 22.4484 13.5713 22.9475 13.2585 23.5727C12.9458 24.1979 12.8566 24.9114 13.0058 25.5943C13.155 26.2772 13.5337 26.8885 14.0787 27.3262C14.6237 27.7639 15.3022 28.0017 16.0012 28C16.6994 28.0003 17.3768 27.7618 17.9209 27.324C18.4649 26.8862 18.8428 26.2755 18.9919 25.5933C19.141 24.911 19.0522 24.1983 18.7404 23.5735C18.4286 22.9486 17.9124 22.4493 17.2776 22.1583V16.8298C17.8597 17.1081 18.5043 17.2766 19.1923 17.2766H21.7453C22.2531 17.2766 22.7401 17.4783 23.0992 17.8375C23.4583 18.1966 23.66 18.6836 23.66 19.1915V22.1583C23.1274 22.4016 22.6759 22.7927 22.3591 23.2851C22.0423 23.7775 21.8736 24.3506 21.8729 24.9362C21.8729 25.7487 22.1957 26.528 22.7702 27.1026C23.3447 27.6772 24.124 28 24.9365 28C25.749 28 26.5282 27.6772 27.1027 27.1026C27.6772 26.528 28 25.7487 28 24.9362C28 23.7017 27.266 22.6434 26.2129 22.1583ZM16.0012 5.29574C16.4697 5.29574 16.9191 5.48189 17.2504 5.81323C17.5817 6.14457 17.7678 6.59397 17.7678 7.06255C17.7678 7.53114 17.5817 7.98053 17.2504 8.31187C16.9191 8.64322 16.4697 8.82936 16.0012 8.82936C15.5326 8.82936 15.0833 8.64322 14.752 8.31187C14.4207 7.98053 14.2345 7.53114 14.2345 7.06255C14.2345 6.59397 14.4207 6.14457 14.752 5.81323C15.0833 5.48189 15.5326 5.29574 16.0012 5.29574ZM7.06586 26.7042C6.8337 26.7042 6.60381 26.6585 6.38931 26.5697C6.17482 26.4808 5.97993 26.3506 5.81576 26.1864C5.6516 26.0222 5.52137 25.8273 5.43253 25.6128C5.34368 25.3983 5.29795 25.1684 5.29795 24.9362C5.29795 24.704 5.34368 24.4741 5.43253 24.2595C5.52137 24.045 5.6516 23.8501 5.81576 23.6859C5.97993 23.5218 6.17482 23.3915 6.38931 23.3027C6.60381 23.2138 6.8337 23.1681 7.06586 23.1681C7.53474 23.1681 7.98442 23.3544 8.31597 23.6859C8.64752 24.0175 8.83378 24.4672 8.83378 24.9362C8.83378 25.4051 8.64752 25.8548 8.31597 26.1864C7.98442 26.518 7.53474 26.7042 7.06586 26.7042ZM16.0012 26.7042C15.769 26.7042 15.5391 26.6585 15.3246 26.5697C15.1101 26.4808 14.9152 26.3506 14.7511 26.1864C14.5869 26.0222 14.4567 25.8273 14.3678 25.6128C14.279 25.3983 14.2333 25.1684 14.2333 24.9362C14.2333 24.704 14.279 24.4741 14.3678 24.2595C14.4567 24.045 14.5869 23.8501 14.7511 23.6859C14.9152 23.5218 15.1101 23.3915 15.3246 23.3027C15.5391 23.2138 15.769 23.1681 16.0012 23.1681C16.47 23.1681 16.9197 23.3544 17.2513 23.6859C17.5828 24.0175 17.7691 24.4672 17.7691 24.9362C17.7691 25.4051 17.5828 25.8548 17.2513 26.1864C16.9197 26.518 16.47 26.7042 16.0012 26.7042ZM24.9365 26.7042C24.7043 26.7042 24.4744 26.6585 24.2599 26.5697C24.0454 26.4808 23.8505 26.3506 23.6864 26.1864C23.5222 26.0222 23.392 25.8273 23.3031 25.6128C23.2143 25.3983 23.1686 25.1684 23.1686 24.9362C23.1686 24.704 23.2143 24.4741 23.3031 24.2595C23.392 24.045 23.5222 23.8501 23.6864 23.6859C23.8505 23.5218 24.0454 23.3915 24.2599 23.3027C24.4744 23.2138 24.7043 23.1681 24.9365 23.1681C25.4053 23.1681 25.855 23.3544 26.1866 23.6859C26.5181 24.0175 26.7044 24.4672 26.7044 24.9362C26.7044 25.4051 26.5181 25.8548 26.1866 26.1864C25.855 26.518 25.4053 26.7042 24.9365 26.7042Z" fill="#F8F8F8"/>
</svg>
